<svg xmlns="http://www.w3.org/2000/svg" width="28.366" height="25" viewBox="0 0 28.366 25">
  <defs>
    <style>
      .cls-1 {
        fill: #70645c;
      }
    </style>
  </defs>
  <path id="Icon_feather-heart" data-name="Icon feather-heart" class="cls-1" d="M21.752,3.5a7.94,7.94,0,0,1,5.614,13.555L16.215,28.2a1,1,0,0,1-1.414,0L3.649,17.052a7.949,7.949,0,0,1,0-11.229A6.074,6.074,0,0,1,8.1,4.326,20.8,20.8,0,0,1,14.527,5.6a1,1,0,0,1,.351.227l.63.63.63-.63A7.886,7.886,0,0,1,21.752,3.5ZM15.507,26.083,25.952,15.638a5.94,5.94,0,1,0-8.4-8.4L16.215,8.575a1,1,0,0,1-1.414,0L13.621,7.4A18.665,18.665,0,0,0,8.1,6.326a4.217,4.217,0,0,0-3.042.912,5.947,5.947,0,0,0,0,8.4Z" transform="translate(-1.327 -3.497)"/>
</svg>
